# xmcd
#
# Track frame offsets: 
#        150
#        11841
#        26812
#        40782
#        51521
#        66295
#        77379
#        91191
#        108394
#        119408
#        129320
#        151517
#        169376
#        186153
#        196886
#        209987
#        223376
#        234474
#        247129
#        260177
#        277088
#
# Disc length: 4587 seconds
#
# Revision: 2
# Processed by: cddbd v1.5.2PL0 Copyright (c) Steve Scherf et al.
# Submitted via: ExactAudioCopyFreeDBPlugin 1.0
#
DISCID=4111e915
DTITLE=The Cramps - The Secret Life of The Cramps
DYEAR=2005
DGENRE=Other
TTITLE0=Blue Moon Baby
TTITLE1=Georgia Lee Brown
TTITLE2=Get Off The Road
TTITLE3=Give Me A Woman
TTITLE4=Jackyard Backoff
TTITLE5=King of The Drapes
TTITLE6=Teenage Rage
TTITLE7=High School Hellcats
TTITLE8=Jailhouse Rock
TTITLE9=Beat Out My Love
TTITLE10=Wilder Wilder, Faster Faster
TTITLE11=Hard Workin' Man
TTITLE12=It's Mighty Crazy
TTITLE13=Jelly Roll Rock
TTITLE14=Shombalor
TTITLE15=Confessions Of A Pussycat
TTITLE16=No Club Lone Wolf
TTITLE17=I Walked All Night
TTITLE18=Naked Girl (Live)
TTITLE19=I'm Customized (Live)
TTITLE20=Surfin' Bird (Live)
EXTD=Collection of B-sides.
EXTT0=
EXTT1=
EXTT2=
EXTT3=
EXTT4=
EXTT5=
EXTT6=
EXTT7=
EXTT8=
EXTT9=
EXTT10=
EXTT11=
EXTT12=
EXTT13=
EXTT14=
EXTT15=
EXTT16=
EXTT17=
EXTT18=
EXTT19=
EXTT20=
PLAYORDER=
